<svg width="57" height="40" viewBox="0 0 57 40" fill="none" xmlns="http://www.w3.org/2000/svg">
<g filter="url(#filter0_di_537_2812)">
<path d="M3.00514 4.75477C3.00514 4.75477 2.67981 15.7922 7.20472 15.7922C9.60446 15.7922 8.64174 4.96874 10.2044 2.9152C14.404 -2.60356 12.6041 41.546 16.2038 35.4142C19.8034 29.2823 17.8836 5.24532 19.8034 2.30201C21.7233 -0.641296 25.0029 18.6537 26.4028 28.6691C26.8027 30.5087 27.9626 32.9614 29.4025 28.0559C30.7326 23.5242 32.5064 16.8995 33.3997 13.499C33.5351 12.9833 33.6761 12.4456 34.0477 12.0633C34.4899 11.6083 35.0585 11.5846 35.4019 13.3394C35.8818 15.7921 39.2015 25.3987 40.8013 29.8955C41.2013 31.1218 42.3612 32.7161 43.801 29.2823C45.1579 26.0463 47.3318 19.2887 48.4146 15.7838C48.5392 15.3804 48.6724 14.97 48.9495 14.6514C49.501 14.0172 50.4634 13.6296 51.6002 15.1789C53.0401 17.1411 53.8 19.2668 54 20.0844" stroke="url(#paint0_linear_537_2812)" stroke-width="4" stroke-linecap="round"/>
</g>
<defs>
<filter id="filter0_di_537_2812" x="0" y="-0.000732422" width="57.0005" height="40.001" filterUnits="userSpaceOnUse" color-interpolation-filters="sRGB">
<feFlood flood-opacity="0" result="BackgroundImageFix"/>
<feColorMatrix in="SourceAlpha" type="matrix" values="0 0 0 0 0 0 0 0 0 0 0 0 0 0 0 0 0 0 127 0" result="hardAlpha"/>
<feOffset dy="1"/>
<feGaussianBlur stdDeviation="0.5"/>
<feComposite in2="hardAlpha" operator="out"/>
<feColorMatrix type="matrix" values="0 0 0 0 0 0 0 0 0 0 0 0 0 0 0 0 0 0 0.25 0"/>
<feBlend mode="normal" in2="BackgroundImageFix" result="effect1_dropShadow_537_2812"/>
<feBlend mode="normal" in="SourceGraphic" in2="effect1_dropShadow_537_2812" result="shape"/>
<feColorMatrix in="SourceAlpha" type="matrix" values="0 0 0 0 0 0 0 0 0 0 0 0 0 0 0 0 0 0 127 0" result="hardAlpha"/>
<feOffset dy="1"/>
<feGaussianBlur stdDeviation="0.5"/>
<feComposite in2="hardAlpha" operator="arithmetic" k2="-1" k3="1"/>
<feColorMatrix type="matrix" values="0 0 0 0 0.191035 0 0 0 0 0.165278 0 0 0 0 0.354167 0 0 0 1 0"/>
<feBlend mode="normal" in2="shape" result="effect2_innerShadow_537_2812"/>
</filter>
<linearGradient id="paint0_linear_537_2812" x1="29" y1="-5" x2="29" y2="46.5" gradientUnits="userSpaceOnUse">
<stop stop-color="#CDC4FF"/>
<stop offset="0.0001" stop-color="#5B48C7"/>
<stop offset="0.572917" stop-color="#3B2A9A"/>
<stop offset="1" stop-color="#251966"/>
</linearGradient>
</defs>
</svg>
